<?xml version="1.0" standalone="no"?>
<!DOCTYPE svg PUBLIC "-//W3C//DTD SVG 20010904//EN"
 "http://www.w3.org/TR/2001/REC-SVG-20010904/DTD/svg10.dtd">
<svg version="1.0" xmlns="http://www.w3.org/2000/svg"
 width="721.000000pt" height="721.000000pt" viewBox="0 0 721.000000 721.000000"
 preserveAspectRatio="xMidYMid meet">
<metadata>
Created by potrace 1.14, written by Peter Selinger 2001-2017
</metadata>
<g transform="translate(0.000000,721.000000) scale(0.100000,-0.100000)"
fill="#000000" stroke="none">
<path d="M0 4490 l0 -2719 93 58 c376 237 1443 841 1485 841 5 0 49 -60 97
-132 155 -233 140 -218 399 -398 l236 -165 200 -605 199 -605 378 -154 c208
-85 400 -165 426 -177 42 -20 52 -21 70 -10 12 7 203 87 425 177 l402 164 179
545 c99 300 187 571 197 603 l18 58 402 280 c221 153 411 287 422 296 20 18
19 20 -138 283 -87 146 -159 270 -159 277 -1 6 89 122 199 258 110 135 200
252 200 259 0 11 -111 286 -204 505 -20 47 -34 86 -33 87 2 2 104 26 227 53
434 96 780 153 1177 191 114 11 232 23 261 26 l52 5 0 1360 0 1359 -3605 0
-3605 0 0 -2720z m3892 2435 c615 -59 1208 -294 1702 -673 372 -287 706 -692
923 -1120 91 -182 226 -523 211 -537 -3 -3 -96 -19 -207 -35 -255 -37 -277
-41 -563 -97 -131 -26 -239 -45 -242 -42 -2 2 -239 451 -526 997 -287 545
-525 992 -529 992 -3 0 -79 -124 -169 -275 -89 -151 -167 -275 -172 -275 -4 0
-71 112 -147 250 -76 137 -142 248 -147 247 -5 -2 -110 -215 -234 -475 -124
-260 -229 -472 -232 -472 -4 0 -109 213 -233 472 -125 260 -230 474 -234 475
-5 2 -71 -110 -147 -247 -76 -138 -142 -252 -145 -255 -4 -2 -81 122 -171 276
-91 153 -169 277 -173 276 -10 -3 -1067 -2007 -1067 -2022 1 -5 40 -38 88 -72
48 -35 100 -73 115 -85 l28 -23 -116 -285 c-63 -156 -115 -290 -115 -297 0 -7
90 -123 200 -258 110 -136 200 -252 199 -258 0 -7 -33 -66 -73 -132 l-72 -120
-164 -88 c-283 -151 -437 -236 -670 -369 -123 -70 -228 -128 -232 -128 -18 0
-109 235 -170 435 -94 313 -131 581 -132 970 0 243 3 299 22 425 97 623 328
1149 715 1630 94 116 390 406 512 502 431 336 927 559 1460 657 94 17 179 28
345 44 98 10 425 5 562 -8z m-1217 -1747 c33 -104 64 -191 69 -192 6 0 50 66
99 147 49 82 93 145 98 140 4 -4 65 -143 135 -307 l127 -299 74 77 c41 42 78
74 82 72 4 -3 31 -41 59 -84 l52 -78 32 -342 c18 -187 35 -336 39 -330 4 6 10
88 14 182 4 94 11 191 14 216 8 48 12 4 27 -288 4 -67 9 -120 12 -117 3 3 20
158 38 345 l32 339 57 81 c31 44 59 80 63 79 4 -1 36 -34 72 -74 36 -40 67
-73 70 -74 3 -1 64 136 135 304 72 168 133 304 137 302 4 -1 47 -67 95 -146
49 -80 92 -144 97 -143 6 0 37 89 70 196 33 108 63 196 66 196 8 0 490 -837
490 -851 0 -8 -11 -47 -24 -88 l-24 -74 40 -90 c22 -49 36 -93 31 -97 -4 -5
-55 -22 -113 -39 -58 -17 -168 -51 -245 -75 -77 -24 -142 -43 -143 -41 -2 2
10 24 27 49 17 24 31 48 31 51 0 4 -35 -25 -77 -64 -76 -69 -82 -72 -212 -116
-74 -25 -137 -43 -139 -40 -2 2 7 18 22 35 14 17 26 42 26 55 0 16 12 33 34
50 28 21 41 25 69 20 29 -6 42 -1 85 29 29 22 66 61 89 97 l38 61 70 -5 70 -5
-69 33 c-53 25 -89 34 -152 39 -78 7 -88 5 -150 -22 -59 -26 -72 -37 -102 -85
-30 -49 -36 -70 -48 -169 -7 -62 -13 -121 -14 -131 0 -21 13 -15 -282 -122
-200 -72 -345 -129 -680 -265 -27 -11 -48 -17 -48 -15 0 3 22 34 50 69 38 48
47 66 37 73 -26 21 -178 105 -182 102 -2 -2 12 -30 30 -61 l34 -57 -41 -89
-41 -89 -181 -83 c-99 -46 -287 -137 -418 -202 -130 -65 -240 -118 -245 -117
-13 0 -203 235 -203 251 0 8 29 62 65 120 36 59 65 113 65 120 0 8 -29 101
-65 208 l-65 195 92 208 92 209 -19 67 c-10 36 -19 80 -19 96 -1 22 64 142
239 442 132 227 242 410 245 407 3 -3 32 -91 65 -196z m2459 -1154 l35 -81
-64 -194 c-36 -106 -65 -200 -65 -207 0 -8 29 -63 65 -122 36 -59 65 -113 65
-119 0 -6 -119 -155 -264 -331 -236 -284 -266 -326 -285 -382 -11 -35 -59
-186 -106 -336 -82 -262 -89 -279 -164 -407 l-79 -133 5 -221 c4 -122 3 -221
0 -221 -3 0 -11 17 -18 38 -7 20 -21 57 -31 82 l-19 45 -74 -115 c-80 -125
-78 -124 -101 -34 -10 39 -18 36 -58 -16 -21 -28 -41 -50 -45 -50 -4 0 -27 61
-51 136 -25 74 -50 136 -55 136 -6 0 -37 -68 -69 -151 -33 -84 -63 -148 -67
-144 -10 10 -90 229 -98 267 -8 36 -31 47 -31 15 0 -23 -87 -266 -100 -282 -4
-5 -34 60 -67 144 -33 84 -64 154 -70 156 -5 2 -29 -60 -54 -137 -24 -77 -46
-140 -50 -140 -4 0 -23 20 -43 45 -21 25 -41 45 -46 45 -5 0 -16 -22 -25 -50
-9 -28 -18 -50 -19 -50 -1 0 -31 45 -66 100 -35 56 -69 105 -76 110 -8 7 -19
-11 -39 -65 -15 -41 -29 -75 -32 -75 -2 0 -3 98 -2 219 l3 218 -78 131 c-76
128 -79 136 -181 462 -57 182 -109 339 -116 348 -13 16 -226 277 -257 314 -17
21 -18 20 383 203 348 158 339 155 331 123 -6 -20 -2 -18 26 13 42 46 38 44
394 192 416 173 932 372 942 363 2 -2 -4 -41 -13 -85 -9 -45 -15 -87 -13 -93
3 -7 37 35 78 93 40 57 83 114 94 126 13 16 74 41 185 77 238 79 435 135 443
128 3 -4 22 -43 42 -88z"/>
<path d="M2650 4311 c-30 -4 -84 -20 -120 -37 l-65 -31 69 1 70 1 37 -56 c21
-31 61 -73 89 -94 43 -32 55 -36 86 -31 46 9 90 -21 104 -72 11 -39 64 -111
75 -101 3 4 -2 64 -10 135 -14 114 -20 134 -50 183 -29 46 -44 58 -97 82 -64
29 -88 31 -188 20z"/>
<path d="M2542 4120 c7 -18 282 -407 304 -430 19 -19 19 -4 -2 91 -11 50 -25
83 -43 102 -56 61 -264 251 -259 237z"/>
<path d="M4012 3702 c-45 -27 -87 -53 -92 -58 -8 -8 205 -293 261 -349 l21
-20 -15 35 c-8 19 -45 100 -81 178 l-67 144 23 36 c12 21 28 47 36 60 20 32 8
28 -86 -26z"/>
<path d="M4105 2730 c-74 -96 -80 -99 -145 -76 -31 11 -41 10 -91 -10 -31 -13
-111 -31 -178 -40 -113 -15 -129 -15 -236 0 -64 10 -144 28 -178 41 -57 21
-65 22 -96 9 -18 -8 -41 -14 -50 -14 -10 0 -48 39 -86 87 -38 48 -70 83 -72
78 -2 -6 10 -50 26 -97 27 -79 35 -92 98 -152 65 -62 72 -66 158 -87 50 -12
94 -25 99 -30 5 -4 16 -28 25 -53 13 -36 30 -56 86 -98 l70 -54 0 -139 0 -139
-80 -57 c-60 -43 -94 -60 -139 -70 -83 -18 -52 -24 47 -9 101 15 343 15 416 1
29 -6 68 -11 85 -10 24 1 17 5 -28 16 -39 9 -83 30 -125 60 -118 82 -111 70
-111 203 0 136 3 143 99 210 49 34 61 49 71 85 7 25 18 49 24 53 6 5 52 19
102 31 90 22 92 23 162 94 66 68 72 78 97 161 14 48 25 90 23 92 -2 2 -35 -37
-73 -86z"/>
<path d="M7130 4350 c-213 -44 -296 -63 -304 -70 -5 -5 0 -72 12 -162 12 -84
24 -184 27 -221 12 -127 6 -469 -10 -617 -109 -974 -635 -1836 -1456 -2388
-555 -372 -1250 -572 -1907 -548 -509 19 -939 124 -1369 335 -480 236 -872
562 -1201 999 -46 63 -101 124 -121 137 -128 84 -405 46 -757 -105 l-44 -19 0
-846 0 -845 3605 0 3605 0 0 2180 0 2180 -22 -1 c-13 -1 -39 -5 -58 -9z"/>
</g>
</svg>
